<svg xmlns="http://www.w3.org/2000/svg" width="32.667" height="52.667" viewBox="0 0 32.667 52.667"><path fill-rule="evenodd" clip-rule="evenodd" fill="#F7E822" d="M-327-1132.333s16.404-7.772 46.133-12.766c32.636-5.483 78.867-8.234 78.867-8.234s6.127 1.153 13.395 3.706c10.592 3.721 23.605 9.294 23.605 9.294s-9.368 18.631-31.682 28.93c-7.229 3.335-17.915 4.097-27.203 5.028-10.442 1.047-19.116 2.042-19.116 2.042l-13-2s-13.342-.833-27.946-.636c-21.155.286-46.054 1.636-46.054 1.636s2.685-4.163 3.4-10.6c.783-7.037-.399-16.4-.399-16.4zM8.35 48.663l21.647-22.122-.667-.681L7.684 47.983l.666.68z"/><path fill-rule="evenodd" clip-rule="evenodd" fill="#F7E822" d="M29.331 27.222l.667-.681L8.35 4.42l-.666.681 21.647 22.121z"/></svg>