<svg xmlns="http://www.w3.org/2000/svg" width="30" height="30" viewBox="0 0 30 30"><path d="M22.82 7.65A2.175 2.175 0 0 0 21.24 7h-13a2.191 2.191 0 0 0-1.58.65A2.139 2.139 0 0 0 6 9.22v12.89a2.139 2.139 0 0 0 .66 1.57 2.191 2.191 0 0 0 1.58.65h13a2.191 2.191 0 0 0 1.58-.65 2.139 2.139 0 0 0 .66-1.57V9.22a2.139 2.139 0 0 0-.66-1.57zm-10.54 5.6a3.427 3.427 0 0 1 2.47-.99 3.474 3.474 0 0 1 2.49.99 3.276 3.276 0 0 1 0 4.77 3.474 3.474 0 0 1-2.49.99 3.427 3.427 0 0 1-2.47-.99 3.276 3.276 0 0 1 0-4.77zm9.22 8.4a.68.68 0 0 1-.2.49.7.7 0 0 1-.49.2H8.64a.663.663 0 0 1-.49-.2.642.642 0 0 1-.2-.49v-7.32h1.6a5.025 5.025 0 0 0 1.37 5.18 5.331 5.331 0 0 0 3.83 1.53 5.441 5.441 0 0 0 2.73-.7 5.343 5.343 0 0 0 1.99-1.9 5.026 5.026 0 0 0 .72-2.63 4.913 4.913 0 0 0-.22-1.48h1.53v7.32zm0-10.08a.711.711 0 0 1-.23.55.747.747 0 0 1-.55.23h-1.98a.77.77 0 0 1-.56-.23.747.747 0 0 1-.23-.55V9.71a.781.781 0 0 1 .23-.55.77.77 0 0 1 .56-.23h1.98a.785.785 0 0 1 .78.78v1.86zM3 0h24a3 3 0 0 1 3 3v24a3 3 0 0 1-3 3H3a3 3 0 0 1-3-3V3a3 3 0 0 1 3-3z" fill="#ffc600" fill-rule="evenodd"/></svg>