<svg xmlns="http://www.w3.org/2000/svg" width="39.5" height="42" viewBox="0 0 39.5 42"><path fill="#F87420" d="M13.945 38c-2.303-4.854-1.077-7.635.693-10.255 1.938-2.87 2.438-5.71 2.438-5.71s1.524 2.007.914 5.144c2.692-3.035 3.2-7.871 2.793-9.723 6.084 4.307 8.685 13.633 5.18 20.544 18.64-10.682 4.637-26.666 2.199-28.467.813 1.801.967 4.848-.675 6.328C24.709 5.188 17.838 3 17.838 3c.813 5.504-2.946 11.524-6.57 16.021-.127-2.195-.263-3.71-1.402-5.81-.256 3.987-3.264 7.238-4.079 11.232-1.103 5.411.827 9.372 8.158 13.557z"/></svg>