<svg xmlns="http://www.w3.org/2000/svg" width="38" height="36.667" viewBox="0 0 38 36.667"><path fill="#FFF" d="M31.028 9.223c1.231-1.648 1.968-3.36 1.972-4.582-.001-.396-.081-.706-.232-.936a.783.783 0 0 0-.136-.175c-.076-.076-.145-.116-.16-.125-.242-.161-.552-.239-.948-.239-1.22.002-2.932.739-4.581 1.972-1.333.997-2.666 2.402-4.511 4.347-.313.33-.642.677-.991 1.04l-3.574-1.071.011-.01a.794.794 0 0 0 .231-.56.797.797 0 0 0-.233-.569l-.646-.645a.804.804 0 0 0-1.134-.001l-.966.966-.51-.153a.78.78 0 0 0 .169-.486.787.787 0 0 0-.233-.57l-.648-.649a.804.804 0 0 0-1.131.002l-.887.885-3.634-1.089a.961.961 0 0 0-.931.235L6.047 8.088a.756.756 0 0 0-.225.527.734.734 0 0 0 .39.657l7.642 4.269c.038.021.146.101.186.141l2.178 2.178c-2.038 2.147-3.853 4.226-5.268 6.035-.132.168-.257.332-.38.494l-5.912-.537a.934.934 0 0 0-.102-.006 1.09 1.09 0 0 0-.732.303l-.596.595a.74.74 0 0 0-.228.527.725.725 0 0 0 .43.668l4.159 1.975a.963.963 0 0 1 .16.115l.345.343a2.522 2.522 0 0 0-.166.799c-.001.31.099.575.29.766l.015.013.004.003c.195.19.449.287.763.287.227-.003.488-.057.793-.165l.351.35c.027.029.092.12.109.156l1.971 4.149c.121.265.38.437.663.437h.004a.735.735 0 0 0 .525-.222l.61-.612a1.086 1.086 0 0 0 .29-.804l-.538-5.933c.162-.122.326-.248.494-.378 1.811-1.417 3.891-3.234 6.033-5.268l2.18 2.182c.036.034.118.142.142.187l4.261 7.628a.74.74 0 0 0 1.189.174l1.286-1.286a.98.98 0 0 0 .229-.922l-1.088-3.635.886-.887a.8.8 0 0 0 .001-1.129l-.649-.649a.8.8 0 0 0-1.056-.066l-.152-.509.967-.967a.809.809 0 0 0 .233-.567.792.792 0 0 0-.233-.564l-.646-.646a.803.803 0 0 0-1.135-.001l-.007.006-1.07-3.573c.37-.352.721-.688 1.056-1.004 1.935-1.841 3.334-3.169 4.329-4.499z"/></svg>