<svg xmlns="http://www.w3.org/2000/svg" width="15.333" height="17.667" viewBox="0 0 15.333 17.667"><path fill="#D0D0D0" d="M12.556 1.167H2.444A1.44 1.44 0 0 0 1 2.595v10c0 .786.65 1.429 1.444 1.429h2.889L7.5 16.167l2.167-2.143h2.889A1.44 1.44 0 0 0 14 12.595v-10a1.44 1.44 0 0 0-1.444-1.428zM8.222 12.595H6.778v-1.429h1.444v1.429zm1.517-5.5l-.65.643c-.578.5-.867.929-.867 2H6.778v-.357c0-.786.289-1.5.867-2l.867-.929c.289-.214.433-.571.433-1 0-.786-.65-1.428-1.444-1.428s-1.445.643-1.445 1.428H4.611c0-1.571 1.3-2.857 2.889-2.857s2.889 1.286 2.889 2.857c0 .643-.289 1.215-.65 1.643z"/></svg>