<svg xmlns="http://www.w3.org/2000/svg" width="14.833" height="15.333" viewBox="0 0 14.833 15.333"><path fill="#F7E829" d="M13.545 6.89a.999.999 0 0 0 .236-.998.94.94 0 0 0-.752-.663l-3.146-.477a.415.415 0 0 1-.31-.235L8.167 1.539c-.158-.335-.479-.543-.835-.543s-.678.208-.836.543L5.09 4.517a.412.412 0 0 1-.31.235l-3.146.478a.937.937 0 0 0-.752.663.998.998 0 0 0 .236.998l2.276 2.318a.441.441 0 0 1 .118.38l-.537 3.273a.985.985 0 0 0 .204.79.912.912 0 0 0 1.148.237l2.813-1.545a.406.406 0 0 1 .383 0l2.813 1.545a.894.894 0 0 0 .433.113.916.916 0 0 0 .715-.35.98.98 0 0 0 .203-.789l-.537-3.274a.442.442 0 0 1 .119-.381l2.276-2.318z"/></svg>