<svg xmlns="http://www.w3.org/2000/svg" width="21.5" height="20.918" viewBox="0 0 21.5 20.918"><path fill="#FFF" d="M17.901 2.931C13.994-.976 7.663-.976 3.76 2.931.003 6.689-.139 12.699 3.341 16.627l.104.083c-.378.814-1.026 1.821-2.058 2.328-.341.166-.262.672.112.731 1.126.174 2.743-.021 4.252-1.16l.021.017c3.832 2.252 8.845 1.737 12.137-1.555 3.9-3.903 3.9-10.237-.008-14.14zm-3.774 11.347c-.22.225-.453.432-.661.665-.303.34-.686.449-1.118.424-.632-.034-1.218-.246-1.779-.52a9.666 9.666 0 0 1-3.213-2.515c-.661-.786-1.205-1.642-1.566-2.61-.175-.47-.3-.948-.262-1.455.024-.311.14-.577.368-.797.25-.237.482-.482.728-.724.32-.316.719-.312 1.039 0 .2.195.391.391.586.586.191.191.383.378.57.57.333.337.333.727 0 1.064-.237.241-.474.482-.719.715-.062.063-.07.112-.037.191.158.383.391.724.648 1.039.52.64 1.11 1.209 1.816 1.65.149.096.316.162.474.249.079.046.137.029.2-.037.237-.245.482-.486.723-.728.32-.316.719-.316 1.035 0 .391.386.777.773 1.164 1.164.332.342.332.741.004 1.069zM10.44 7.819l.125-.89a3.95 3.95 0 0 1 2.257 1.126 3.926 3.926 0 0 1 1.106 2.133l-.886.153a3.05 3.05 0 0 0-.856-1.65 3.035 3.035 0 0 0-1.746-.872zm4.934 2.369a5.68 5.68 0 0 0-1.583-3.06 5.663 5.663 0 0 0-3.234-1.613l.125-.89a6.514 6.514 0 0 1 3.741 1.866 6.566 6.566 0 0 1 1.837 3.542l-.886.155z"/></svg>