<svg xmlns="http://www.w3.org/2000/svg" width="30" height="30" viewBox="0 0 30 30"><path d="M15.01 22.16h1.29a1.073 1.073 0 0 0 .59-.28 1.042 1.042 0 0 0 .17-.6s-.02-1.86.78-2.14 1.81 1.8 2.88 2.59a1.88 1.88 0 0 0 1.43.47l2.88-.04s1.5-.1.79-1.37a10.285 10.285 0 0 0-2.14-2.66c-1.8-1.8-1.56-1.51.61-4.63 1.32-1.89 1.85-3.05 1.69-3.55-.16-.47-1.13-.35-1.13-.35l-3.24.03a.655.655 0 0 0-.42.08.955.955 0 0 0-.28.37 21.378 21.378 0 0 1-1.2 2.71c-1.44 2.64-2.02 2.78-2.25 2.61-.55-.38-.42-1.53-.42-2.34 0-2.56.36-3.62-.7-3.9A5.224 5.224 0 0 0 14.83 9a6.553 6.553 0 0 0-2.68.3c-.37.19-.66.62-.48.65a1.407 1.407 0 0 1 .95.52 3.573 3.573 0 0 1 .32 1.57s.19 3.01-.44 3.38c-.44.26-1.04-.27-2.32-2.66a23.016 23.016 0 0 1-1.16-2.57 1.037 1.037 0 0 0-.27-.39 1.169 1.169 0 0 0-.49-.22l-3.08.02a1.036 1.036 0 0 0-.63.23.771.771 0 0 0-.01.59s2.4 6.07 5.13 9.12a7.129 7.129 0 0 0 5.34 2.62zM3 0h24a3 3 0 0 1 3 3v24a3 3 0 0 1-3 3H3a3 3 0 0 1-3-3V3a3 3 0 0 1 3-3z" fill="#fff" fill-rule="evenodd"/></svg>