<svg xmlns="http://www.w3.org/2000/svg" width="21.84" height="22" viewBox="0 0 21.84 22"><path d="M10.93 16.25h.94a.715.715 0 0 0 .42-.2.755.755 0 0 0 .13-.45s-.02-1.36.57-1.56c.57-.2 1.31 1.32 2.09 1.9a1.406 1.406 0 0 0 1.05.34l2.09-.03a.636.636 0 0 0 .58-1.01 8.066 8.066 0 0 0-1.56-1.95c-1.31-1.32-1.14-1.1.44-3.39.97-1.39 1.35-2.24 1.23-2.6a.853.853 0 0 0-.82-.26l-2.36.02a.449.449 0 0 0-.3.06.67.67 0 0 0-.21.27 14.678 14.678 0 0 1-.87 1.99c-1.05 1.93-1.47 2.04-1.64 1.92-.4-.28-.3-1.13-.3-1.73 0-1.87.26-2.65-.51-2.85a3.758 3.758 0 0 0-1.1-.12 4.61 4.61 0 0 0-1.96.22c-.27.14-.47.46-.35.48a1.009 1.009 0 0 1 .7.38 2.614 2.614 0 0 1 .23 1.15s.14 2.2-.32 2.48c-.32.19-.76-.2-1.69-1.95a16.868 16.868 0 0 1-.84-1.89.673.673 0 0 0-.2-.28.94.94 0 0 0-.36-.16l-2.24.01a.713.713 0 0 0-.46.17.565.565 0 0 0-.01.43 28.057 28.057 0 0 0 3.74 6.69 5.142 5.142 0 0 0 3.89 1.92zM3 0h15.84a3 3 0 0 1 3 3v16a3 3 0 0 1-3 3H3a3 3 0 0 1-3-3V3a3 3 0 0 1 3-3z" fill="#343434" fill-rule="evenodd"/></svg>