<svg xmlns="http://www.w3.org/2000/svg" width="39.75" height="38.25" viewBox="0 0 39.75 38.25"><path fill-rule="evenodd" clip-rule="evenodd" fill="#FFDC40" d="M19.746 1.741c9.669 0 17.506 7.836 17.506 17.505s-7.837 17.507-17.506 17.507c-9.668 0-17.505-7.838-17.505-17.507S10.077 1.741 19.746 1.741zm4.651 7.068v3.449a8.264 8.264 0 0 0 .582-2.611c.02-.503-.235-.729-.582-.838zm0 6.233c.673.194 1.643.368 1.929.042.856-.959 1.335-2.37 1.396-3.634.041-.855-1.05-1.602-1.765-1.866-.223 1.294-.457 2.295-.754 2.987a7.86 7.86 0 0 1-.806 1.489v.982zm-7.16-1.673v7.366c.152-.379.354-.815.59-1.296.909-1.857 1.836-3.204 2.706-4.102.356-.356.61-.601.813-.693.563-.233 1.543-.112 1.971-.57.438-.491.805-1.123 1.081-1.816V8.809c-.348-.111-.786-.1-1.152-.132-.826-.053-1.461.011-1.857.265-.796.521-1.765 1.541-2.979 2.968-.407.481-.795.959-1.173 1.459zm0 9.915v2.064c.325-.574.62-1.338.192-1.83-.072-.08-.13-.16-.192-.234zm7.16-9.223c-.183.267-.379.521-.581.766.122.061.327.144.581.214v-.98zm-7.16 15.61c.264-.142.55-.365.856-.683a7.258 7.258 0 0 0 1.173-1.5c.315-.542.724-1.213.326-1.816-.408-.428-.827-.855-1.232-1.286-.358.938-.727 1.716-1.124 2.316v2.969h.001zm-5.469-3.968v.215c.053 1.058.949 2.376 2.052 2.447 1.06.072 2.643-1.785 3.163-2.59a7.48 7.48 0 0 0 .255-.428v-2.064c-.318-.426-.461-.813-.441-1.182.053-.317.205-.776.441-1.368v-7.365a32.54 32.54 0 0 0-3.469 5.693c-1.207 2.56-1.878 4.775-2.001 6.642zm5.469 1a5.166 5.166 0 0 1-.329.459c-.51.643-1.243 1.222-2.181 1.734.783.59 1.427.909 1.938.936.185 0 .366-.049.572-.161v-2.968z"/></svg>